<svg xmlns="http://www.w3.org/2000/svg" width="32" height="32" viewBox="0 0 32 32">
  <rect width="32" height="32" rx="7" fill="#111111"/>
  <g transform="translate(3.5, 4)">
    <!-- Jacket body -->
    <path d="M12.5 3 L10 3 L6.5 7 L3 5.5 L1.5 15 L6.5 13.5 L6.5 23 L18.5 23 L18.5 13.5 L23.5 15 L22 5.5 L18.5 7 L15 3 L12.5 3Z" fill="#ff7f50" opacity="0.15"/>
    <path d="M12.5 3 L10 3 L6.5 7 L3 5.5 L1.5 15 L6.5 13.5 L6.5 23 L18.5 23 L18.5 13.5 L23.5 15 L22 5.5 L18.5 7 L15 3 L12.5 3Z" fill="none" stroke="#ff7f50" stroke-width="1.8" stroke-linejoin="round" stroke-linecap="round"/>
    <!-- Collar / lapel -->
    <path d="M10 3 L11.5 9 L12.5 6 L13.5 9 L15 3" fill="none" stroke="#ff7f50" stroke-width="1.4" stroke-linejoin="round" stroke-linecap="round"/>
    <!-- Pockets -->
    <line x1="8.5" y1="17" x2="11" y2="17" stroke="#ff7f50" stroke-width="1.2" stroke-linecap="round"/>
    <line x1="14" y1="17" x2="16.5" y2="17" stroke="#ff7f50" stroke-width="1.2" stroke-linecap="round"/>
  </g>
</svg>
